<svg width="512" height="385" viewBox="0 0 512 385" fill="none" xmlns="http://www.w3.org/2000/svg">
<path d="M459.5 376.649C469 384.549 482.3 386.349 493.6 381.049C504.9 375.749 512 364.449 512 352.049V32.0487C512 19.6487 504.8 8.34874 493.6 3.04874C482.4 -2.25126 469.1 -0.551256 459.5 7.44874L288 150.349V192.049V233.749L459.5 376.649ZM256 288.049V192.049V64.0487V32.0487C256 19.6487 248.8 8.34874 237.6 3.04874C226.4 -2.25126 213.1 -0.551256 203.5 7.44874L11.5 167.449C4.2 173.549 0 182.549 0 192.049C0 201.549 4.2 210.549 11.5 216.649L203.5 376.649C213 384.549 226.3 386.349 237.6 381.049C248.9 375.749 256 364.449 256 352.049V288.049Z" fill="white"/>
</svg>
