<svg width="512" height="386" viewBox="0 0 512 386" fill="none" xmlns="http://www.w3.org/2000/svg">
<path d="M52.5 377.6C43 385.5 29.7 387.3 18.4 382C7.1 376.7 0 365.4 0 353V32.9999C0 20.5999 7.2 9.29991 18.4 3.99991C29.6 -1.30009 42.9 0.399916 52.5 8.39992L224 151.3V193V234.7L52.5 377.6ZM256 289V193V64.9999V32.9999C256 20.5999 263.2 9.29991 274.4 3.99991C285.6 -1.30009 298.9 0.399916 308.5 8.39992L500.5 168.4C507.8 174.5 512 183.5 512 193C512 202.5 507.8 211.5 500.5 217.6L308.5 377.6C299 385.5 285.7 387.3 274.4 382C263.1 376.7 256 365.4 256 353V289Z" fill="white"/>
</svg>
