<svg width="50" height="50" viewBox="0 0 50 50" fill="none" xmlns="http://www.w3.org/2000/svg">
<path d="M49.8614 16.2727C50.193 17.1225 49.9132 18.0699 49.1983 18.6755L45.9967 21.4202C45.1989 22.1137 44.8156 23.1295 44.8674 24.1453C44.8777 24.4286 44.8881 24.7119 44.8881 25.0049C44.8881 25.2979 44.8777 25.5812 44.8674 25.8644C44.8156 26.89 45.1886 27.9058 45.9967 28.5896L49.1983 31.3342C49.9132 31.9398 50.193 32.8873 49.8614 33.7371C49.4055 34.8994 48.8564 36.0129 48.2243 37.0873L47.7374 37.8785C47.0535 38.9529 46.2868 39.9687 45.4476 40.926C44.8363 41.6292 43.8209 41.8636 42.9091 41.5902L38.7958 40.3594C37.7597 40.0469 36.6407 40.252 35.7185 40.8088C35.2108 41.1115 34.6928 41.4046 34.154 41.6585C33.1904 42.1274 32.4444 42.9478 32.2061 43.9441L31.284 47.9195C31.0768 48.8084 30.3515 49.5116 29.3983 49.6581C27.9684 49.8828 26.4972 50 24.9948 50C23.4925 50 22.0212 49.8828 20.5914 49.6581C19.6381 49.5116 18.9129 48.8084 18.7056 47.9195L17.7835 43.9441C17.5556 42.9478 16.7992 42.1274 15.8356 41.6585C15.2969 41.3948 14.7788 41.1115 14.2711 40.8088C13.3593 40.252 12.23 40.0469 11.1939 40.3594L7.09089 41.5999C6.17911 41.8734 5.16373 41.6292 4.55242 40.9357C3.71318 39.9785 2.94646 38.9627 2.26263 37.8883L1.77566 37.0971C1.14363 36.0227 0.594493 34.9092 0.138606 33.7468C-0.192948 32.8971 0.0868006 31.9496 0.801715 31.344L4.00329 28.5993C4.80109 27.9058 5.18445 26.89 5.13264 25.8742C5.12228 25.5909 5.11192 25.3077 5.11192 25.0147C5.11192 24.7216 5.12228 24.4384 5.13264 24.1551C5.18445 23.1295 4.81145 22.1137 4.00329 21.43L0.801715 18.6755C0.0868006 18.0699 -0.192948 17.1225 0.138606 16.2727C0.594493 15.1104 1.14363 13.9969 1.77566 12.9224L2.26263 12.1313C2.94646 11.0568 3.71318 10.041 4.55242 9.08381C5.16373 8.38054 6.17911 8.14612 7.09089 8.41961L11.2042 9.65032C12.2403 9.96288 13.3593 9.75777 14.2815 9.20102C14.7892 8.89822 15.3072 8.6052 15.846 8.35124C16.8096 7.8824 17.5556 7.06193 17.7939 6.06564L18.716 2.09025C18.9232 1.20141 19.6485 0.498144 20.6017 0.351631C22.0316 0.11721 23.5028 0 25.0052 0C26.5075 0 27.9788 0.11721 29.4086 0.341864C30.3619 0.488377 31.0871 1.19164 31.2944 2.08048L32.2165 6.05587C32.4444 7.05216 33.1904 7.87263 34.1644 8.34147C34.7031 8.6052 35.2212 8.88845 35.7289 9.19125C36.6407 9.748 37.77 9.94335 38.8061 9.64055L42.9195 8.40985C43.8313 8.13635 44.8466 8.38054 45.4579 9.07404C46.2972 10.0313 47.0639 11.0471 47.7477 12.1215L48.2347 12.9127C48.8667 13.9871 49.4159 15.1006 49.8718 16.2629L49.8614 16.2727ZM25.0052 32.8189C27.2035 32.8189 29.3118 31.9957 30.8663 30.5302C32.4208 29.0648 33.294 27.0773 33.294 25.0049C33.294 22.9325 32.4208 20.9449 30.8663 19.4795C29.3118 18.0141 27.2035 17.1909 25.0052 17.1909C22.8068 17.1909 20.6985 18.0141 19.1441 19.4795C17.5896 20.9449 16.7163 22.9325 16.7163 25.0049C16.7163 27.0773 17.5896 29.0648 19.1441 30.5302C20.6985 31.9957 22.8068 32.8189 25.0052 32.8189Z" fill="white"/>
</svg>
