<svg width="50" height="51" viewBox="0 0 50 51" fill="none" xmlns="http://www.w3.org/2000/svg">
<path d="M41.6875 0.644552C46.7578 6.41072 50 15.2019 50 25.0525C50 34.903 46.7578 43.7051 41.6875 49.4604C40.8828 50.3777 39.7031 50.203 39.0469 49.0782C38.3906 47.9533 38.5156 46.3043 39.3203 45.3869C43.5547 40.5818 46.25 33.2649 46.25 25.0525C46.25 16.8401 43.5547 9.52314 39.3203 4.70708C38.5156 3.78973 38.3984 2.1407 39.0469 1.01586C39.6953 -0.108981 40.8828 -0.272792 41.6875 0.633632V0.644552ZM36.9609 8.78053C40.3359 12.6246 42.5 18.4891 42.5 25.0525C42.5 31.6159 40.3359 37.4803 36.9609 41.3244C36.1563 42.2418 34.9766 42.067 34.3203 40.9422C33.6641 39.8174 33.7891 38.1683 34.5937 37.251C37.1328 34.3679 38.75 29.9777 38.75 25.0525C38.75 20.1272 37.1328 15.7371 34.5937 12.8431C33.7891 11.9257 33.6719 10.2767 34.3203 9.15183C34.9687 8.02699 36.1563 7.86318 36.9609 8.76961V8.78053ZM32.2344 16.9165C33.9141 18.8386 35 21.7653 35 25.0525C35 28.3396 33.9141 31.2664 32.2344 33.1884C31.4297 34.1058 30.25 33.9311 29.5937 32.8062C28.9375 31.6814 29.0625 30.0323 29.8672 29.115C30.7109 28.154 31.25 26.6906 31.25 25.0525C31.25 23.4144 30.7109 21.951 29.8672 20.979C29.0625 20.0617 28.9453 18.4126 29.5937 17.2878C30.2422 16.163 31.4297 15.9992 32.2344 16.9056V16.9165ZM23.5234 0.89573C24.4219 1.46361 25 2.70858 25 4.0846V46.0204C25 47.3964 24.4219 48.6413 23.5234 49.2092C22.625 49.7771 21.5703 49.5478 20.8359 48.6304L10.2969 35.5364H5C2.24219 35.5364 0 32.4022 0 28.5471V21.5578C0 17.7028 2.24219 14.5685 5 14.5685H10.2969L20.8359 1.47453C21.5703 0.557186 22.625 0.338771 23.5234 0.89573Z" fill="white"/>
</svg>
