<svg width="50" height="51" viewBox="0 0 50 51" fill="none" xmlns="http://www.w3.org/2000/svg">
<path d="M26.1394 0.329502C27.1378 0.909851 27.7802 2.18216 27.7802 3.58839V46.445C27.7802 47.8512 27.1378 49.1235 26.1394 49.7039C25.1411 50.2842 23.9691 50.0498 23.1531 49.1123L11.442 35.7308H5.55604C2.49154 35.7308 0 32.5277 0 28.5881V21.4453C0 17.5056 2.49154 14.3025 5.55604 14.3025H11.442L23.1531 0.921012C23.9691 -0.0164759 25.1411 -0.239687 26.1394 0.329502ZM36.8956 15.0838L41.6703 21.2221L46.445 15.0838C47.261 14.0347 48.5806 14.0347 49.388 15.0838C50.1953 16.1329 50.204 17.8293 49.388 18.8672L44.6133 25.0055L49.388 31.1438C50.204 32.1929 50.204 33.8893 49.388 34.9273C48.5719 35.9652 47.2524 35.9764 46.445 34.9273L41.6703 28.7889L36.8956 34.9273C36.0795 35.9764 34.76 35.9764 33.9526 34.9273C33.1452 33.8782 33.1366 32.1818 33.9526 31.1438L38.7273 25.0055L33.9526 18.8672C33.1366 17.8181 33.1366 16.1217 33.9526 15.0838C34.7686 14.0458 36.0882 14.0347 36.8956 15.0838Z" fill="white"/>
</svg>
