<svg width="50" height="51" viewBox="0 0 50 51" fill="none" xmlns="http://www.w3.org/2000/svg">
<path d="M33.6049 0.329502C34.8884 0.909851 35.7143 2.18216 35.7143 3.58839V46.445C35.7143 47.8512 34.8884 49.1235 33.6049 49.7039C32.3214 50.2842 30.8147 50.0498 29.7656 49.1123L14.7098 35.7308H7.14286C3.20313 35.7308 0 32.5277 0 28.5881V21.4453C0 17.5056 3.20313 14.3025 7.14286 14.3025H14.7098L29.7656 0.921012C30.8147 -0.0164759 32.3214 -0.239687 33.6049 0.329502ZM46.0491 16.7021C48.4487 18.6663 50 21.6573 50 25.0167C50 28.376 48.4487 31.367 46.0491 33.3313C44.8996 34.2688 43.2143 34.0902 42.2768 32.9407C41.3393 31.7911 41.5179 30.1059 42.6674 29.1684C43.8728 28.1863 44.6429 26.6908 44.6429 25.0167C44.6429 23.3426 43.8728 21.8471 42.6674 20.8538C41.5179 19.9163 41.3504 18.2311 42.2768 17.0815C43.2031 15.932 44.8996 15.7646 46.0491 16.6909V16.7021Z" fill="white"/>
</svg>
